<svg width="231" height="46" viewBox="0 0 231 46" fill="none" xmlns="http://www.w3.org/2000/svg">
<path d="M0.412109 4.21875H10.6953C17.4336 4.21875 21.7793 6.16211 23.7324 10.0488C24.4551 11.5137 24.8164 12.9688 24.8164 14.4141C24.8164 15.8594 24.6602 17.0117 24.3477 17.8711C24.0547 18.7109 23.6543 19.4824 23.1465 20.1855C22.1895 21.5137 20.9199 22.6465 19.3379 23.584V23.7012C22.2676 24.541 24.4258 26.0156 25.8125 28.125C26.8672 29.7266 27.3945 31.5039 27.3945 33.457C27.3945 35.4102 27.0039 37.0996 26.2227 38.5254C25.4609 39.9512 24.3965 41.1426 23.0293 42.0996C20.2363 44.0332 16.5059 45 11.8379 45H0.412109V4.21875ZM11.8086 22.002C14.9531 22.002 17.0723 20.7617 18.166 18.2812C18.5371 17.4023 18.7227 16.4258 18.7227 15.3516C18.7227 14.2578 18.5859 13.3203 18.3125 12.5391C18.0391 11.7383 17.5996 11.0547 16.9941 10.4883C15.7051 9.27734 13.7617 8.67188 11.1641 8.67188H6.27148V22.002H11.8086ZM21.3008 33.5742C21.3008 28.8281 18.4492 26.4551 12.7461 26.4551H6.27148V40.5469H11.8379C16.1348 40.5469 19.0352 39.248 20.5391 36.6504C21.0469 35.7715 21.3008 34.7461 21.3008 33.5742ZM33.0488 29.8242C33.0488 25.0781 34.5625 21.2305 37.5898 18.2812C40.4219 15.5273 43.9277 14.1504 48.1074 14.1504C52.209 14.1504 55.6367 15.5273 58.3906 18.2812C61.3203 21.2109 62.7852 25.0586 62.7852 29.8242C62.7852 34.5703 61.3105 38.3984 58.3613 41.3086C55.5684 44.082 52.1406 45.4688 48.0781 45.4688C43.957 45.4688 40.4609 44.082 37.5898 41.3086C34.5625 38.3984 33.0488 34.5703 33.0488 29.8242ZM39.1426 29.8242C39.1426 34.8242 40.7441 38.2227 43.9473 40.0195C45.0801 40.6445 46.4375 40.957 48.0195 40.957C49.6016 40.957 50.9395 40.6445 52.0332 40.0195C53.127 39.375 54.0254 38.5352 54.7285 37.5C56.0371 35.5078 56.6914 32.9492 56.6914 29.8242C56.6914 24.8633 55.1191 21.4648 51.9746 19.6289C50.8809 18.9844 49.5723 18.6621 48.0488 18.6621C46.5254 18.6621 45.1973 18.9844 44.0645 19.6289C42.9512 20.2539 42.0332 21.084 41.3105 22.1191C39.8652 24.1504 39.1426 26.7188 39.1426 29.8242ZM68.0293 29.8242C68.0293 25.0781 69.543 21.2305 72.5703 18.2812C75.4023 15.5273 78.9082 14.1504 83.0879 14.1504C87.1895 14.1504 90.6172 15.5273 93.3711 18.2812C96.3008 21.2109 97.7656 25.0586 97.7656 29.8242C97.7656 34.5703 96.291 38.3984 93.3418 41.3086C90.5488 44.082 87.1211 45.4688 83.0586 45.4688C78.9375 45.4688 75.4414 44.082 72.5703 41.3086C69.543 38.3984 68.0293 34.5703 68.0293 29.8242ZM74.123 29.8242C74.123 34.8242 75.7246 38.2227 78.9277 40.0195C80.0605 40.6445 81.418 40.957 83 40.957C84.582 40.957 85.9199 40.6445 87.0137 40.0195C88.1074 39.375 89.0059 38.5352 89.709 37.5C91.0176 35.5078 91.6719 32.9492 91.6719 29.8242C91.6719 24.8633 90.0996 21.4648 86.9551 19.6289C85.8613 18.9844 84.5527 18.6621 83.0293 18.6621C81.5059 18.6621 80.1777 18.9844 79.0449 19.6289C77.9316 20.2539 77.0137 21.084 76.291 22.1191C74.8457 24.1504 74.123 26.7188 74.123 29.8242ZM105.412 1.43555H111.271V28.3008L123.518 14.7656H130.49L117.453 28.4766L131.164 45H124.016L111.271 29.5898V45H105.412V1.43555ZM142.385 45.4688C139.943 45.4688 137.473 45.293 134.973 44.9414V39.7559C137.512 40.3613 140.09 40.6641 142.707 40.6641C147.941 40.6641 150.559 39.5605 150.559 37.3535C150.559 36.5137 150.354 35.8887 149.943 35.4785C149.338 34.834 148.381 34.1895 147.072 33.5449L142.795 31.582C140.021 30.1953 138.225 29.082 137.404 28.2422C135.861 26.6797 135.09 24.8242 135.09 22.6758C135.09 20.2539 136.213 18.2812 138.459 16.7578C140.881 15.1172 144.279 14.2969 148.654 14.2969C150.861 14.2969 153.088 14.4531 155.334 14.7656V19.7754C152.873 19.3262 150.725 19.1016 148.889 19.1016C147.072 19.1016 145.656 19.2188 144.641 19.4531C143.645 19.6875 142.893 19.9805 142.385 20.332C141.584 20.8789 141.184 21.5918 141.184 22.4707C141.184 23.3301 141.457 24.0332 142.004 24.5801C142.57 25.1074 143.449 25.6836 144.641 26.3086L148.947 28.3887C151.76 29.8535 153.566 30.9766 154.367 31.7578C155.891 33.2422 156.652 35.1074 156.652 37.3535C156.652 39.7559 155.441 41.6895 153.02 43.1543C150.48 44.6973 146.936 45.4688 142.385 45.4688ZM179.094 45.4688C168.039 45.4688 162.512 40.0684 162.512 29.2676C162.512 24.6191 164.045 20.8984 167.111 18.1055C169.865 15.5664 173.01 14.2969 176.545 14.2969C180.393 14.2969 183.4 15.5859 185.568 18.1641C187.58 20.5664 188.586 23.7793 188.586 27.8027V30.0879H168.605C168.605 35.6152 170.861 38.9941 175.373 40.2246C176.447 40.5176 178.098 40.6641 180.324 40.6641C182.57 40.6641 184.768 40.3613 186.916 39.7559V44.707C184.768 45.2148 182.16 45.4688 179.094 45.4688ZM182.727 25.7812C182.727 23.9062 182.209 22.3242 181.174 21.0352C179.963 19.5508 178.293 18.8086 176.164 18.8086C173.918 18.8086 172.092 19.5215 170.686 20.9473C169.396 22.2754 168.752 23.8867 168.752 25.7812H182.727ZM196.291 1.40625H202.15V33.5449C202.15 37.4121 203.029 39.6875 204.787 40.3711C205.373 40.6055 205.998 40.7227 206.662 40.7227C207.326 40.7227 207.922 40.6445 208.449 40.4883V45L207.365 45.1172C207.014 45.1562 206.672 45.1758 206.34 45.1758C202.59 45.1758 199.885 43.9453 198.225 41.4844C196.936 39.5508 196.291 36.9141 196.291 33.5742V1.40625ZM230.422 5.80078C229.719 5.56641 228.742 5.44922 227.492 5.44922C226.242 5.44922 225.246 5.56641 224.504 5.80078C223.781 6.03516 223.205 6.37695 222.775 6.82617C222.033 7.62695 221.662 8.93555 221.662 10.752V14.7656H229.221V19.248H221.662V45H215.803V19.248H212.17V16.4941L215.803 14.7656V11.543C215.803 9.49219 215.979 7.94922 216.33 6.91406C216.701 5.87891 217.141 5.01953 217.648 4.33594C218.156 3.65234 218.84 3.05664 219.699 2.54883C221.516 1.47461 224.064 0.9375 227.346 0.9375C228.713 0.9375 229.738 1.01563 230.422 1.17188V5.80078Z" fill="white"/>
</svg>
