<svg width="154" height="154" viewBox="0 0 154 154" fill="none" xmlns="http://www.w3.org/2000/svg">
<path d="M132.556 5H20.9444C12.1386 5 5 12.1386 5 20.9444V132.556C5 141.361 12.1386 148.5 20.9444 148.5H132.556C141.361 148.5 148.5 141.361 148.5 132.556V20.9444C148.5 12.1386 141.361 5 132.556 5Z" stroke="white" stroke-width="10" stroke-linecap="round" stroke-linejoin="round"/>
<path d="M48.8472 60.8056C55.4517 60.8056 60.8056 55.4516 60.8056 48.8472C60.8056 42.2428 55.4517 36.8889 48.8472 36.8889C42.2428 36.8889 36.8889 42.2428 36.8889 48.8472C36.8889 55.4516 42.2428 60.8056 48.8472 60.8056Z" stroke="white" stroke-width="10" stroke-linecap="round" stroke-linejoin="round"/>
<path d="M148.5 100.667L108.639 60.8055L20.9443 148.5" stroke="white" stroke-width="10" stroke-linecap="round" stroke-linejoin="round"/>
</svg>
