<svg width="38" height="38" viewBox="0 0 38 38" fill="none" xmlns="http://www.w3.org/2000/svg">
<path d="M3.16675 4.75H12.6667C14.3465 4.75 15.9574 5.41726 17.1451 6.60499C18.3328 7.79272 19.0001 9.40363 19.0001 11.0833V33.25C19.0001 31.9902 18.4996 30.782 17.6088 29.8912C16.718 29.0004 15.5099 28.5 14.2501 28.5H3.16675V4.75Z" stroke="white" stroke-width="2" stroke-linecap="round" stroke-linejoin="round"/>
<path d="M34.8333 4.75H25.3333C23.6536 4.75 22.0427 5.41726 20.855 6.60499C19.6673 7.79272 19 9.40363 19 11.0833V33.25C19 31.9902 19.5004 30.782 20.3912 29.8912C21.282 29.0004 22.4902 28.5 23.75 28.5H34.8333V4.75Z" stroke="white" stroke-width="2" stroke-linecap="round" stroke-linejoin="round"/>
</svg>
