<svg width="50" height="50" viewBox="0 0 50 50" fill="none" xmlns="http://www.w3.org/2000/svg">
<path d="M6.25 12.5H10.4167H43.75" stroke="#D45454" stroke-width="4" stroke-linecap="round" stroke-linejoin="round"/>
<path d="M39.5833 12.5001V41.6668C39.5833 42.7718 39.1443 43.8316 38.3629 44.613C37.5815 45.3944 36.5217 45.8334 35.4166 45.8334H14.5833C13.4782 45.8334 12.4184 45.3944 11.637 44.613C10.8556 43.8316 10.4166 42.7718 10.4166 41.6668V12.5001M16.6666 12.5001V8.33342C16.6666 7.22835 17.1056 6.16854 17.887 5.38714C18.6684 4.60573 19.7282 4.16675 20.8333 4.16675H29.1666C30.2717 4.16675 31.3315 4.60573 32.1129 5.38714C32.8943 6.16854 33.3333 7.22835 33.3333 8.33342V12.5001" stroke="#D45454" stroke-width="4" stroke-linecap="round" stroke-linejoin="round"/>
<path d="M20.8334 22.9167V35.4167" stroke="#D45454" stroke-width="4" stroke-linecap="round" stroke-linejoin="round"/>
<path d="M29.1666 22.9167V35.4167" stroke="#D45454" stroke-width="4" stroke-linecap="round" stroke-linejoin="round"/>
</svg>
